HIERARCHY
ROOT Hips
{
 OFFSET 0.000000 0.000000 0.000000
 CHANNELS 6 Xposition Yposition Zposition Yrotation Xrotation Zrotation
 JOINT Chest
 {
  OFFSET 0.000000 9.585900 0.002600
  CHANNELS 3 Yrotation Xrotation Zrotation
  JOINT Chest2
  {
   OFFSET 0.000000 9.601200 -0.005300
   CHANNELS 3 Yrotation Xrotation Zrotation
   JOINT Chest3
   {
    OFFSET 0.000000 9.561800 0.000000
    CHANNELS 3 Yrotation Xrotation Zrotation
    JOINT Chest4
    {
     OFFSET 0.000000 9.552100 0.000000
     CHANNELS 3 Yrotation Xrotation Zrotation
     JOINT Neck
     {
      OFFSET 0.000000 14.453000 0.000000
      CHANNELS 3 Yrotation Xrotation Zrotation
      JOINT Head
      {
       OFFSET 0.000000 8.936500 -0.011300
       CHANNELS 3 Yrotation Xrotation Zrotation
       End Site
       {
        OFFSET 0.000000 17.073600 -0.006000
       }
      }
     }
     JOINT RightCollar
     {
      OFFSET -2.921100 9.558500 0.000000
      CHANNELS 3 Yrotation Xrotation Zrotation
      JOINT RightShoulder
      {
       OFFSET -13.519700 0.000000 0.000000
       CHANNELS 3 Yrotation Xrotation Zrotation
       JOINT RightElbow
       {
        OFFSET 0.000000 -29.696600 0.000000
        CHANNELS 3 Yrotation Xrotation Zrotation
        JOINT RightWrist
        {
         OFFSET 0.000000 -24.004700 0.000000
         CHANNELS 3 Yrotation Xrotation Zrotation
         End Site
         {
          OFFSET 0.000000 -17.728500 0.000000
         }
        }
       }
      }
     }
     JOINT LeftCollar
     {
      OFFSET 2.921100 9.558500 0.000000
      CHANNELS 3 Yrotation Xrotation Zrotation
      JOINT LeftShoulder
      {
       OFFSET 13.519700 0.000000 0.000000
       CHANNELS 3 Yrotation Xrotation Zrotation
       JOINT LeftElbow
       {
        OFFSET 0.000000 -29.696600 0.000000
        CHANNELS 3 Yrotation Xrotation Zrotation
        JOINT LeftWrist
        {
         OFFSET 0.000000 -24.004700 0.000000
         CHANNELS 3 Yrotation Xrotation Zrotation
         End Site
         {
          OFFSET 0.000000 -17.728500 0.000000
         }
        }
       }
      }
     }
    }
   }
  }
 }
 JOINT RightHip
 {
  OFFSET -7.771700 -0.012900 -0.001300
  CHANNELS 3 Yrotation Xrotation Zrotation
  JOINT RightKnee
  {
   OFFSET 0.000000 -40.869800 0.001200
   CHANNELS 3 Yrotation Xrotation Zrotation
   JOINT RightAnkle
   {
    OFFSET 0.000000 -39.717900 0.002100
    CHANNELS 3 Yrotation Xrotation Zrotation
    JOINT RightToe
    {
     OFFSET 0.000000 -4.965400 11.033500
     CHANNELS 3 Yrotation Xrotation Zrotation
     End Site
     {
      OFFSET 0.000000 -1.423100 5.872300
     }
    }
   }
  }
 }
 JOINT LeftHip
 {
  OFFSET 7.771700 -0.012900 -0.001300
  CHANNELS 3 Yrotation Xrotation Zrotation
  JOINT LeftKnee
  {
   OFFSET 0.000000 -40.869800 0.001200
   CHANNELS 3 Yrotation Xrotation Zrotation
   JOINT LeftAnkle
   {
    OFFSET 0.000000 -39.717900 0.002100
    CHANNELS 3 Yrotation Xrotation Zrotation
    JOINT LeftToe
    {
     OFFSET 0.000000 -4.965400 11.033500
     CHANNELS 3 Yrotation Xrotation Zrotation
     End Site
     {
      OFFSET 0.000000 -1.423100 5.872300
     }
    }
   }
  }
 }
}
MOTION
Frames: 9
Frame Time: 0.008333
14.385026 48.806776 52.995862 173.891295 -35.209704 -6.527385 7.391489 19.010399 5.309617 0.850667 2.501154 0.552902 1.390323 4.083695 0.925902 6.153626 16.346940 4.452168 -2.572814 16.596792 3.124378 -5.859123 -4.752307 6.686125 -3.476009 -2.749458 -3.930297 4.216568 -3.892528 2.730735 53.152874 -79.829608 -64.192729 1.604503 2.293214 6.363427 -9.689069 -2.534469 0.970531 1.163282 -3.510772 -1.072990 -97.499020 -70.604253 105.701424 16.289251 -6.581997 -7.280278 6.708731 -51.549404 8.182186 -66.373137 82.165433 -55.370307 -4.015434 -1.124519 -1.184078 0.036024 -0.242539 0.368975 -8.749861 -49.570681 13.944935 -155.300434 80.566241 -162.091099 1.405913 -17.607758 7.528030 0.012158 0.041719 0.010127
14.389562 48.810426 52.996817 173.913517 -35.207480 -6.538069 7.361471 19.011948 5.307345 0.850049 2.493747 0.547581 1.386200 4.075845 0.922698 6.130125 16.337194 4.443858 -2.533834 16.625486 3.134155 -5.831397 -4.723395 6.681468 -3.447093 -2.727743 -3.941346 4.194680 -3.949493 2.698535 53.147944 -79.811346 -64.160705 1.657719 2.398776 6.511646 -9.697141 -2.512807 0.970165 1.121382 -3.528470 -1.009964 -97.327596 -70.602954 105.511242 16.199620 -6.414184 -7.465362 6.638485 -51.434433 8.243833 -69.077689 82.417751 -58.036181 -4.164277 -1.540026 -1.257998 0.045564 -0.337901 0.351763 -8.757857 -49.560864 13.947363 -155.281753 80.583646 -162.074371 1.396649 -17.616205 7.528864 0.007330 0.052847 0.013096
14.389581 48.813161 53.001176 173.935345 -35.194874 -6.532494 7.323684 19.006741 5.288869 0.848642 2.489287 0.543871 1.381651 4.069084 0.919561 6.107281 16.339294 4.439223 -2.499881 16.634362 3.130695 -5.777244 -4.689759 6.681191 -3.418236 -2.723894 -3.960175 4.160112 -4.003218 2.668324 53.075841 -79.804679 -64.048845 1.703410 2.458885 6.642177 -9.778683 -2.498458 0.975864 1.160010 -3.540448 -0.949159 -97.264650 -70.605150 105.420348 16.111198 -6.234374 -7.686596 6.559284 -51.312244 8.300795 -71.780594 82.666623 -60.709443 -4.377728 -1.990296 -1.323396 0.048624 -0.386524 0.325987 -8.750528 -49.563776 13.930269 -155.219456 80.602634 -162.017411 1.369401 -17.619615 7.533640 0.007225 0.054921 0.016464
14.385787 48.816689 53.006565 173.950976 -35.190494 -6.513230 7.289303 19.013915 5.261858 0.842897 2.481892 0.541828 1.375657 4.065672 0.917692 6.106554 16.344808 4.432804 -2.483748 16.634540 3.130688 -5.681499 -4.708124 6.663666 -3.424934 -2.737716 -3.981893 4.165058 -4.018430 2.666951 52.996756 -79.803677 -63.948608 1.725021 2.471005 6.700231 -9.815346 -2.491267 0.977324 1.143422 -3.542224 -0.874768 -97.296292 -70.617989 105.410356 16.030473 -6.074562 -7.921470 6.465020 -51.167491 8.371385 -74.532665 82.895925 -63.440118 -4.683952 -2.461348 -1.371180 0.026679 -0.409785 0.284631 -8.722012 -49.562307 13.889678 -155.165288 80.623537 -161.968276 1.346941 -17.612030 7.540532 0.008305 0.055539 0.019818
14.377686 48.819986 53.014277 173.967334 -35.183299 -6.484106 7.250894 19.025028 5.223143 0.840634 2.474609 0.541954 1.368744 4.064105 0.915274 6.102177 16.346060 4.424353 -2.474462 16.628630 3.130255 -5.635458 -4.743747 6.642861 -3.440344 -2.749221 -3.998783 4.159781 -4.071458 2.630265 53.343794 -79.835055 -64.255654 1.712583 2.508013 6.804749 -9.911846 -2.476570 0.980692 1.189123 -3.548859 -0.789890 -97.378519 -70.642085 105.446769 15.967616 -5.967543 -8.153808 6.352579 -51.013255 8.449836 -77.357377 83.100087 -66.253595 -5.047683 -2.937568 -1.397849 -0.015033 -0.424483 0.229727 -8.684700 -49.567024 13.831167 -155.092924 80.645949 -161.903461 1.333786 -17.596092 7.548608 0.012054 0.052353 0.021468
14.371122 48.824001 53.024694 173.979568 -35.177506 -6.478085 7.224942 19.037655 5.210413 0.834731 2.470766 0.541849 1.362150 4.062755 0.914163 6.076894 16.349151 4.418823 -2.466562 16.607110 3.128414 -5.587437 -4.756314 6.610674 -3.429448 -2.764827 -4.019572 4.158952 -4.118700 2.588042 53.525993 -79.883251 -64.406586 1.687951 2.443076 6.866344 -9.996455 -2.468572 0.973717 1.245488 -3.559985 -0.698499 -97.473437 -70.669216 105.498582 15.927111 -5.939202 -8.360488 6.194998 -50.850093 8.569269 -80.229587 83.281368 -69.135919 -5.238772 -3.384024 -1.416591 -0.024900 -0.452980 0.181861 -8.685811 -49.568898 13.816338 -155.033514 80.664106 -161.854845 1.330744 -17.581056 7.549836 0.007096 0.047860 0.022080
14.366559 48.828820 53.037756 173.980757 -35.173495 -6.493258 7.222952 19.040371 5.225748 0.827135 2.479162 0.544615 1.343768 4.075973 0.917721 6.015209 16.383039 4.422799 -2.407268 16.546483 3.092482 -5.556314 -4.781540 6.588448 -3.369748 -2.827506 -4.064441 4.163752 -4.146887 2.559472 53.731574 -79.930035 -64.593680 1.648248 2.333931 6.884709 -10.008373 -2.512890 0.948527 1.272594 -3.576261 -0.608894 -97.561373 -70.680039 105.552681 15.905931 -5.991378 -8.535098 6.016932 -50.682642 8.711441 -83.183732 83.427199 -72.115623 -5.185050 -3.774780 -1.426745 0.008663 -0.508891 0.141601 -8.708920 -49.567389 13.842058 -154.960371 80.680213 -161.786211 1.319056 -17.567405 7.545247 0.012005 0.046249 0.025705
14.358407 48.832959 53.053718 173.994810 -35.158325 -6.508622 7.205150 19.034578 5.231642 0.816750 2.489873 0.547591 1.331698 4.088190 0.920531 5.999608 16.392272 4.423890 -2.390409 16.507025 3.075214 -5.517824 -4.853332 6.553534 -3.361188 -2.863386 -4.086511 4.168530 -4.177403 2.530009 53.990630 -79.971414 -64.837924 1.603004 2.193667 6.894237 -10.015525 -2.543136 0.934020 1.242425 -3.595387 -0.519192 -97.617038 -70.649651 105.592240 15.899164 -6.106345 -8.675197 5.857659 -50.525026 8.818951 -86.234948 83.519654 -75.184378 -5.074946 -4.097738 -1.404669 0.041136 -0.597754 0.086433 -8.738437 -49.577065 13.864052 -154.645674 80.697932 -161.487560 1.335996 -17.542571 7.542361 0.022389 0.051557 0.040183
14.347609 48.839057 53.068727 174.007277 -35.159978 -6.517283 7.159185 19.070899 5.224993 0.835672 2.479342 0.547272 1.326013 4.094696 0.923631 5.980170 16.408623 4.431361 -2.374407 16.467197 3.056973 -5.472736 -4.989648 6.501915 -3.375717 -2.878169 -4.101884 4.199271 -4.231069 2.498749 54.312087 -79.997511 -65.158587 1.558672 2.040266 6.908669 -10.083221 -2.563833 0.937240 1.269441 -3.640098 -0.450690 -97.612671 -70.559241 105.593833 15.895610 -6.262200 -8.760095 5.737010 -50.350745 8.894067 -89.276804 83.564460 -78.224020 -4.988652 -4.315077 -1.354800 0.072211 -0.747707 0.022655 -8.761456 -49.571763 13.869906 -154.586221 80.719295 -161.441451 1.325973 -17.520757 7.543132 0.024522 0.050384 0.044430
